<?xml version="1.0" encoding="UTF-8"?>
<!DOCTYPE svg PUBLIC "-//W3C//DTD SVG 1.1//EN" "http://www.w3.org/Graphics/SVG/1.1/DTD/svg11.dtd">
<!-- Creator: CorelDRAW X6 -->
<svg xmlns="http://www.w3.org/2000/svg" xml:space="preserve" width="53mm" height="53mm" version="1.1" style="shape-rendering:geometricPrecision; text-rendering:geometricPrecision; image-rendering:optimizeQuality; fill-rule:evenodd; clip-rule:evenodd"
viewBox="0 0 5728 5728"
 xmlns:xlink="http://www.w3.org/1999/xlink">
 <defs>
  <style type="text/css">
   <![CDATA[
    .fil0 {fill:#2F2E31}
    .fil1 {fill:#8B0002}
    .fil4 {fill:#AEAFB3}
    .fil3 {fill:#8B0002;fill-rule:nonzero}
    .fil2 {fill:#AEAFB3;fill-rule:nonzero}
   ]]>
  </style>
 </defs>
 <g id="Warstwa_x0020_1">
  <metadata id="CorelCorpID_0Corel-Layer"/>
  <g id="_791001888">
   <rect class="fil1" width="3646" height="5728"/>
   <path class="fil2" d="M1848 2687c47,0 92,3 137,9 43,5 86,13 127,24l72 -139 5 -9 9 5 189 98 9 5 -5 9 -58 112c25,12 49,25 72,39 24,14 48,29 70,45l93 -102 7 -7 7 7 158 143 7 7 -7 7 -89 98c16,17 32,35 47,54 15,19 30,38 44,57l128 -63 9 -4 4 9 95 191 4 9 -9 4 -116 57c10,22 18,44 26,66 8,22 15,45 22,69l161 -17 10 -1 1 10 22 212 1 10 -10 1 -145 15c1,10 1,21 2,32 1,14 1,27 1,41 0,13 0,26 -1,39 0,11 -1,21 -2,31l152 41 10 3 -3 10 -56 206 -3 10 -10 -3 -131 -36c-7,26 -16,52 -25,77 -9,25 -20,50 -31,75l119 60 9 4 -4 9 -96 190 -4 9 -9 -4 -132 -67c-14,19 -28,37 -43,54 -15,17 -30,34 -46,51l88 108 6 8 -8 6 -165 135 -8 6 -6 -8 -84 -104c-20,13 -40,26 -61,39 -21,12 -42,24 -64,35l39 132 3 9 -10 3 -204 60 -9 3 -3 -10 -34 -115c-43,11 -87,20 -132,26 -47,6 -96,10 -144,10 -46,0 -91,-3 -135,-8 -42,-5 -84,-13 -124,-23l-41 118 -3 9 -9 -3 -201 -70 -9 -3 3 -9 42 -120c-22,-11 -44,-22 -65,-34 -22,-12 -43,-25 -63,-39l-101 101 -7 7 -7 -7 -150 -151 -7 -7 7 -7 85 -85c-18,-18 -35,-37 -51,-56 -17,-20 -33,-40 -48,-61l-104 56 -9 5 -5 -9 -101 -187 -5 -9 9 -5 97 -52c-10,-22 -20,-45 -28,-69 -9,-24 -17,-47 -24,-71l-142 8 -10 1 -1 -10 -12 -213 -1 -10 10 -1 112 -6c-1,-11 -1,-23 -2,-35 -1,-15 -1,-30 -1,-46 0,-14 0,-28 1,-42 0,-11 1,-22 2,-33l-102 -13 -10 -1 1 -10 27 -211 1 -10 10 1 113 14c8,-27 17,-54 26,-80 10,-26 20,-52 32,-77l-102 -54 -9 -5 5 -9 99 -188 5 -9 9 5 114 60c15,-19 30,-38 46,-57 16,-18 32,-36 49,-54l-73 -96 -6 -8 8 -6 170 -129 8 -6 6 8 67 89c20,-14 42,-26 63,-39 22,-12 44,-24 66,-35l-36 -116 -3 -9 9 -3 203 -63 9 -3 3 10 33 107c40,-10 81,-17 123,-22 44,-5 89,-8 135,-8zm135 28c-44,-6 -89,-8 -135,-8 -45,0 -89,3 -132,8 -44,5 -87,13 -130,24l-9 2 -3 -9 -33 -106 -184 57 36 115 3 8 -8 4c-25,12 -49,24 -73,38 -24,13 -47,28 -70,43l-8 5 -6 -8 -67 -88 -154 117 72 95 5 7 -6 6c-19,19 -37,38 -54,59 -17,20 -34,41 -50,63l-5 7 -8 -4 -112 -59 -90 171 102 54 8 4 -4 9c-13,27 -25,55 -35,84 -11,28 -20,57 -28,86l-2 8 -8 -1 -111 -14 -24 192 101 13 9 1 -1 9c-1,14 -2,28 -2,42 -1,14 -1,27 -1,41 0,15 0,30 1,45 1,14 2,29 3,44l1 10 -10 1 -113 6 11 193 140 -8 8 0 2 8c8,27 16,52 26,78 10,26 20,51 32,76l4 8 -8 4 -96 52 92 170 103 -55 8 -4 5 7c17,23 34,45 52,67 18,22 38,42 57,62l7 7 -7 7 -85 85 136 137 100 -100 6 -6 7 5c22,15 45,29 69,43 23,13 47,26 72,37l8 4 -3 8 -42 119 182 64 41 -117 3 -9 9 2c43,11 86,19 131,24 44,5 88,8 133,8 48,0 96,-3 142,-9 47,-6 94,-16 139,-28l9 -3 3 9 34 115 185 -54 -38 -131 -2 -8 7 -4c24,-12 47,-24 70,-38 23,-14 45,-28 67,-43l8 -5 6 7 84 103 150 -122 -87 -107 -6 -7 6 -6c17,-18 34,-37 51,-56 16,-19 32,-39 47,-60l5 -7 8 4 131 66 87 -173 -118 -60 -9 -4 4 -9c12,-27 24,-54 34,-82 10,-28 19,-56 27,-85l3 -10 10 3 131 36 50 -186 -151 -41 -8 -2 1 -8c1,-13 2,-26 2,-38 0,-13 1,-26 1,-39 0,-13 0,-27 -1,-41 -1,-13 -1,-27 -2,-41l-1 -10 10 -1 145 -15 -20 -192 -160 16 -8 1 -2 -8c-7,-25 -15,-50 -24,-75 -9,-25 -19,-50 -30,-74l-4 -9 9 -4 115 -57 -86 -173 -126 62 -8 4 -5 -7c-15,-22 -31,-43 -48,-63 -17,-20 -34,-40 -53,-59l-6 -7 6 -7 88 -97 -143 -130 -92 101 -6 7 -7 -5c-25,-18 -50,-34 -76,-49 -26,-15 -53,-30 -80,-43l-9 -4 5 -9 59 -112 -171 -89 -71 137 -4 7 -8 -2c-43,-11 -87,-19 -132,-25zm536 402c-88,-88 -192,-158 -308,-207 -112,-46 -234,-72 -362,-72 -128,0 -251,26 -362,72 -116,48 -221,119 -308,207 -88,88 -158,192 -207,308 -46,112 -72,234 -72,362 0,128 26,251 72,362 48,116 119,221 207,308 88,88 192,158 308,207 112,46 234,72 362,72 128,0 251,-26 362,-72 116,-48 221,-119 308,-207 88,-88 158,-192 207,-308 46,-112 72,-234 72,-362 0,-128 -26,-251 -72,-362 -48,-116 -119,-221 -207,-308zm-301 -225c119,49 225,121 315,211 89,89 162,196 211,315 47,114 74,239 74,370 0,131 -26,256 -74,370 -49,119 -121,225 -211,315 -89,89 -196,162 -315,211 -114,47 -239,74 -370,74 -131,0 -256,-26 -370,-74 -119,-49 -225,-121 -315,-211 -89,-89 -162,-196 -211,-315 -47,-114 -74,-239 -74,-370 0,-131 26,-256 74,-370 49,-119 121,-225 211,-315 89,-89 196,-162 315,-211 114,-47 239,-74 370,-74 131,0 256,26 370,74z"/>
   <path class="fil2" d="M1701 2792l317 0 27 0 -1 27 -60 2424 0 6 -3 6c-12,24 -23,44 -32,62 -37,72 -56,111 -89,111 -37,0 -60,-50 -109,-161 -2,-4 -4,-8 -6,-13l-2 -5 0 -5 -68 -2426 -1 -27 27 0z"/>
   <path class="fil3" d="M1990 2844l-262 0 68 2393c1,3 2,5 4,8 39,88 57,129 60,129 1,0 16,-29 43,-82 9,-17 19,-37 30,-58l59 -2391z"/>
   <path class="fil2" d="M1281 3158l1164 0 25 0 0 25 0 1087c0,47 -19,89 -50,120 -31,31 -73,50 -120,50l-301 0c-2,0 -3,0 -5,0 -27,0 -77,-1 -113,81l-29 66 -18 -69c-20,-78 -84,-77 -108,-77 -1,0 -3,0 -4,0l-291 0c-48,0 -92,-20 -123,-51 -32,-32 -51,-75 -51,-123l0 -1083 0 -25 25 0z"/>
   <polygon class="fil2" points="2226,2844 1486,2844 1460,2844 1460,2818 1460,2544 1460,2518 1486,2518 2226,2518 2252,2518 2252,2544 2252,2818 2252,2844 "/>
   <polygon class="fil3" points="1513,2792 2199,2792 2199,2571 1513,2571 "/>
   <path class="fil4" d="M687 3744l0 -345c0,-49 12,-67 57,-67 92,0 127,65 127,209 0,148 -43,203 -151,203l-33 0zm53 -462l-330 0 0 34c74,5 98,34 98,122l0 610c0,93 -20,126 -99,129l0 36 378 0 0 -36c-85,-4 -100,-37 -100,-129l0 -256 100 0c183,0 279,-103 279,-258 0,-99 -43,-179 -120,-220 -58,-32 -126,-33 -206,-33z"/>
   <path class="fil4" d="M2702 4211l619 0 41 -315 -29 0c-57,201 -132,259 -281,259 -77,0 -84,-21 -84,-112l0 -327 179 -159 0 -75 -179 159 0 -201c0,-96 16,-120 110,-122l0 -34 -374 0 0 34c71,4 94,34 94,122l0 313 -119 105 0 74 119 -105 0 220c0,93 -19,126 -95,129l0 36z"/>
   <path class="fil4" d="M2131 2472c101,-295 329,-135 494,-224l31 -67c-56,8 -120,8 -185,7 -58,-1 -117,-1 -170,4 -136,14 -244,71 -234,279l65 0zm542 -327l25 -55c-74,11 -164,9 -255,7 -132,-2 -268,-5 -366,29 -114,40 -175,133 -111,346l67 0c-11,-233 111,-296 264,-312 56,-6 115,-5 174,-5 73,1 144,1 202,-11zm42 -91l28 -62c-132,16 -283,11 -429,6 -216,-7 -420,-14 -526,48 -97,57 -112,179 26,425l118 0c-66,-229 5,-332 134,-377 103,-36 243,-33 377,-31 100,2 196,4 271,-10zm45 -97l58 -125c-182,106 -495,43 -825,4 -384,-45 -759,109 -401,636l186 0c-139,-257 -117,-388 -5,-454 115,-68 323,-61 544,-53 152,5 310,11 444,-8z"/>
   <path class="fil3" d="M2420 3208l-1114 0 0 1058c0,34 14,66 37,88 23,23 54,37 88,37l291 0c1,0 2,0 4,0 28,0 96,-1 136,64 46,-65 101,-64 133,-64 2,0 3,0 5,0l301 0c33,0 63,-14 85,-35 22,-22 35,-52 35,-85l0 -1062z"/>
   <path class="fil4" d="M1400 3647l69 0 29 42 76 0 79 123 401 0 76 -123 84 0 33 -82 53 0c-34,213 -93,346 -184,407l-478 0c-112,-51 -184,-182 -239,-367z"/>
   <path class="fil4" d="M1662 4052l13 -26 92 -190 183 -380 -17 -8 14 -26 63 30 -12 25 -15 -6 -178 366 -92 190 -18 38c13,17 18,36 10,54l-79 167 -93 -44 76 -164c9,-18 34,-23 53,-25z"/>
  </g>
 </g>
</svg>
