<?xml version="1.0" encoding="UTF-8"?>
<svg id="Warstwa_1" data-name="Warstwa 1" xmlns="http://www.w3.org/2000/svg" version="1.1" viewBox="233 217 375 164">
  <defs>
    <style>
      .cls-1 {
        fill-rule: evenodd;
      }

      .cls-1, .cls-2 {
        fill: #fff;
        stroke-width: 0px;
      }
    </style>
  </defs>
<!--  <path class="cls-2" d="M607,326.8c-.5.3-.9.5-1.2.6-.3.1-.7.2-1.1.2-.8,0-1.3-.2-1.7-.5-.4-.3-.7-1-.9-1.8-.7.9-1.4,1.5-2.2,1.8-.7.4-1.6.5-2.6.5s-2.3-.4-3.1-1.2c-.8-.8-1.1-1.9-1.1-3.2s.6-2.9,1.9-3.8c.3-.2.5-.3.8-.4.2-.1.5-.2.8-.4.3-.1.8-.3,1.3-.4.5-.2,1.2-.4,2.1-.6.7-.2,1.3-.5,1.6-.8.3-.3.5-.8.5-1.3s-.3-1.2-.8-1.6c-.5-.4-1.2-.6-2-.6s-.7,0-1,0c-.3,0-.6.1-.9.3-.3.1-.6.3-1,.5-.3.2-.7.5-1.1.8l-.5-2c.5-.2,1-.4,1.5-.6.4-.2.9-.3,1.3-.4.4,0,.8-.2,1.3-.2.4,0,.9,0,1.4,0,1.6,0,2.8.3,3.7.9.9.6,1.3,1.5,1.3,2.6v9.2c0,.9.3,1.3.9,1.3s.3,0,.4,0c.1,0,.3-.2.6-.4v1.7ZM602.1,318.1c0,0-.2.1-.3.2-.1,0-.2.1-.4.2-.4.1-.8.3-1.2.4-.4.2-.8.3-1.3.5-1.9.7-2.8,1.8-2.8,3.4s.2,1.5.7,2c.5.5,1.1.7,1.8.7s.9,0,1.4-.3c.4-.2.8-.4,1.1-.7.3-.3.5-.7.7-1.1.2-.4.3-.9.3-1.4v-4ZM583.3,326.4c0,.2,0,.3,0,.5,0,.1,0,.3,0,.5h-3.3c0-.2,0-.3,0-.5,0-.1,0-.3,0-.5v-19.4c0-.2,0-.4,0-.5,0-.1,0-.3,0-.5h3.3c0,.2,0,.3,0,.5,0,.1,0,.3,0,.5v11.2l5-5.5c.1-.1.2-.2.3-.3,0-.1.2-.3.3-.4h2.5c-.2.1-.3.2-.3.3l-.5.6-4.7,4.9,7.1,8.9c.2.2.3.4.4.5,0,0,.2.2.4.3h-3.9c0-.1-.1-.2-.2-.3l-.3-.4v-.2c-.1,0-5.9-7.1-5.9-7.1v7ZM564.9,325.7l9.2-12.4h-8c-.2,0-.4,0-.6,0-.2,0-.4,0-.6,0v-1.6h12.7v1.6l-9.2,12.3h8.1c.2,0,.4,0,.5,0,.1,0,.3,0,.6,0v1.7h-12.8v-1.6ZM559.4,325.1c-.7.9-1.3,1.6-2,2-.7.4-1.5.6-2.5.6s-1.7-.2-2.4-.5c-.7-.4-1.3-.9-1.8-1.6-.5-.7-.9-1.5-1.1-2.5-.3-1-.4-2.1-.4-3.4,0-2.5.5-4.5,1.6-5.9,1.1-1.4,2.5-2.1,4.4-2.1s1.7.2,2.3.5c.6.3,1.2.8,1.7,1.5v-6.6c0-.2,0-.4,0-.5,0-.1,0-.3,0-.5h3.3c0,.3-.1.6-.1.9v19.4c0,.2,0,.3,0,.5,0,.1,0,.3,0,.5h-3.1v-2.3ZM556,313.1c-1.2,0-2.1.5-2.7,1.6-.6,1.1-.9,2.7-.9,4.8,0,4.1,1.1,6.1,3.4,6.1s1.1-.1,1.6-.4c.5-.3.9-.7,1.1-1.2.3-.6.5-1.2.7-2,.1-.7.2-1.7.2-2.8,0-2-.3-3.6-.9-4.6-.6-1-1.4-1.6-2.6-1.6ZM539.8,311.5c1.1,0,2.1.2,3,.6.9.4,1.6.9,2.3,1.6.6.7,1.1,1.5,1.4,2.5.3,1,.5,2.1.5,3.4s-.2,2.3-.5,3.3c-.3,1-.8,1.8-1.4,2.5-.6.7-1.4,1.2-2.2,1.6-.9.4-1.8.6-2.9.6s-2.1-.2-3-.6c-.9-.4-1.6-.9-2.3-1.6-.6-.7-1.1-1.6-1.4-2.6-.3-1-.5-2.2-.5-3.5s.2-2.3.5-3.2c.3-1,.8-1.8,1.4-2.5.6-.7,1.4-1.2,2.3-1.6.9-.4,1.9-.5,2.9-.5ZM539.8,312.8c-.6,0-1.1.2-1.6.5-.5.3-.9.8-1.2,1.4-.3.6-.6,1.3-.8,2.1-.2.8-.3,1.7-.3,2.8,0,2.1.4,3.8,1.1,5,.7,1.2,1.7,1.8,2.9,1.8s2.2-.6,2.9-1.8c.7-1.2,1.1-2.9,1.1-4.9s-.4-3.7-1.1-5c-.7-1.2-1.7-1.8-2.9-1.8ZM540.2,305.5h2.6l-3.1,4.6h-1.5l2-4.6ZM519.7,320.5l-.9-1.2,2.6-2v-8.7c0-.2,0-.4,0-.5,0-.1,0-.3,0-.5h3.5c0,.2,0,.3,0,.5,0,.1,0,.3,0,.5v6.6l3.4-2.7.9,1.2-4.3,3.4v8.8h5.6c.3,0,.5,0,.6,0,.1,0,.3,0,.4-.1v1.8h-10c0-.2,0-.3,0-.5,0-.1,0-.3,0-.5v-7.3l-1.7,1.3ZM510.9,326.8c-.5.3-.9.5-1.2.6-.3.1-.7.2-1.1.2-.8,0-1.3-.2-1.7-.5-.4-.3-.7-1-.9-1.8-.7.9-1.4,1.5-2.2,1.8-.7.4-1.6.5-2.6.5s-2.3-.4-3.1-1.2c-.8-.8-1.1-1.9-1.1-3.2s.6-2.9,1.9-3.8c.3-.2.5-.3.8-.4.2-.1.5-.2.8-.4.3-.1.8-.3,1.3-.4.5-.2,1.2-.4,2.1-.6.7-.2,1.3-.5,1.6-.8.3-.3.5-.8.5-1.3s-.3-1.2-.8-1.6c-.5-.4-1.2-.6-2-.6s-.7,0-1,0c-.3,0-.6.1-.9.3-.3.1-.6.3-1,.5-.3.2-.7.5-1.1.8l-.5-2c.5-.2,1-.4,1.5-.6.4-.2.9-.3,1.3-.4.4,0,.8-.2,1.3-.2.4,0,.9,0,1.4,0,1.6,0,2.8.3,3.7.9.9.6,1.3,1.5,1.3,2.6v9.2c0,.9.3,1.3.9,1.3s.3,0,.4,0c.1,0,.3-.2.6-.4v1.7ZM506,318.1c0,0-.2.1-.3.2-.1,0-.2.1-.4.2-.4.1-.8.3-1.2.4-.4.2-.8.3-1.3.5-1.9.7-2.8,1.8-2.8,3.4s.2,1.5.7,2c.5.5,1.1.7,1.8.7s.9,0,1.4-.3c.4-.2.8-.4,1.1-.7.3-.3.5-.7.7-1.1.2-.4.3-.9.3-1.4v-4ZM487.1,326.4c0,.2,0,.3,0,.5,0,.1,0,.3,0,.5h-3.3c0-.2,0-.3,0-.5,0-.1,0-.3,0-.5v-19.4c0-.2,0-.4,0-.5,0-.1,0-.3,0-.5h3.3c0,.2,0,.3,0,.5,0,.1,0,.3,0,.5v11.2l5-5.5c.1-.1.2-.2.3-.3,0-.1.2-.3.3-.4h2.5c-.2.1-.3.2-.3.3l-.5.6-4.7,4.9,7.1,8.9c.2.2.3.4.4.5,0,0,.2.2.4.3h-3.9c0-.1-.1-.2-.2-.3l-.3-.4v-.2c-.1,0-5.9-7.1-5.9-7.1v7ZM478.5,307.7c.6,0,1.1.1,1.4.4.3.2.5.6.5,1s-.2.8-.5,1c-.3.3-.8.4-1.4.4s-1.1-.1-1.4-.4c-.3-.2-.5-.6-.5-1.1s.2-.8.5-1c.3-.3.8-.4,1.4-.4ZM480.1,311.9c0,.2,0,.4,0,.5,0,.1,0,.3,0,.5v13.6c0,.2,0,.3,0,.5,0,.1,0,.3,0,.5h-3.3c0-.2,0-.3,0-.5,0-.1,0-.3,0-.5v-13.6c0-.2,0-.4,0-.5,0-.1,0-.3,0-.5h3.3ZM463.3,311.9v2.2c.6-.9,1.2-1.5,2-1.9.7-.4,1.7-.6,2.8-.6s1.6.1,2.3.4c.7.3,1.3.7,1.7,1.2.6.7.9,1.7.9,2.9v10.4c0,.3,0,.6.1.9h-3.3c0-.2,0-.3,0-.4,0-.1,0-.3,0-.5v-9.9c0-.9-.3-1.6-.8-2-.5-.5-1.2-.7-2.2-.7s-2,.3-2.7,1c-.6.6-.9,1.5-.9,2.7v9.1c0,.2,0,.3,0,.5,0,.1,0,.3,0,.5h-3.3c0-.2,0-.3,0-.4,0-.1,0-.3,0-.5v-13.6c0-.3,0-.6-.1-.9h3.1ZM443.7,327.3c0-.3.1-.6.1-.9v-19.4c0-.2,0-.4,0-.5,0-.1,0-.3,0-.4h3.3c0,.2,0,.3,0,.5,0,.1,0,.3,0,.5v6.9c.6-.9,1.3-1.5,2-1.8.7-.4,1.6-.5,2.6-.5,1.6,0,2.8.4,3.6,1.2.9.8,1.3,1.9,1.3,3.3v10.4c0,.2,0,.3,0,.5,0,.1,0,.3,0,.5h-3.3c0-.2,0-.3,0-.5,0-.1,0-.3,0-.5v-9.4c0-1.1-.2-2-.7-2.5-.5-.5-1.2-.8-2.3-.8s-2,.3-2.6,1c-.6.6-.9,1.5-.9,2.6v9.1c0,.2,0,.3,0,.5,0,.1,0,.3,0,.5h-3.3ZM441.1,326.5c-.6.2-1,.4-1.4.6-.4.1-.7.3-1,.3-.3,0-.6.1-.9.1-.3,0-.6,0-1,0-2.2,0-3.9-.7-5.2-2.1-1.2-1.4-1.8-3.3-1.8-5.8s.2-2.4.5-3.4c.4-1,.9-1.9,1.5-2.6.7-.7,1.4-1.3,2.4-1.6.9-.4,2-.6,3.2-.6s1.2,0,1.8.1c.6,0,1.2.3,1.9.5v2.3c-.4-.3-.7-.5-1-.7-.3-.2-.6-.3-.8-.4-.3-.1-.5-.2-.8-.2-.3,0-.6,0-.9,0-1.4,0-2.5.6-3.4,1.8-.8,1.2-1.2,2.8-1.2,4.8s.4,3.6,1.2,4.8c.8,1.1,1.8,1.7,3.2,1.7s1.3-.1,1.8-.4c.6-.2,1.2-.7,1.9-1.3v2.1ZM426.8,326.3c-.5.2-1,.4-1.4.6-.4.2-.8.3-1.3.4-.4.1-.8.2-1.3.2-.4,0-.9,0-1.4,0-2.5,0-4.5-.7-5.8-2-1.3-1.4-2-3.3-2-5.9s.2-2.4.5-3.4c.3-1,.8-1.9,1.4-2.6.6-.7,1.4-1.2,2.3-1.6.9-.4,1.9-.6,3-.6,2.1,0,3.7.6,4.8,1.9,1.1,1.3,1.8,3.2,1.9,5.6h-10.7c0,.5,0,.9,0,1.3,0,.4,0,.7.1,1,0,.3.1.6.2.9,0,.3.2.5.3.8.7,2,2.2,3,4.5,3s1.6-.1,2.3-.4c.7-.3,1.4-.7,2.2-1.4l.5,2ZM424.3,317.7c0-.5,0-.9-.1-1.2,0-.3-.1-.6-.2-.9-.3-.8-.7-1.5-1.2-1.9-.6-.5-1.2-.7-2-.7s-1.9.4-2.6,1.2c-.7.8-1.1,2-1.2,3.5h7.4ZM403.9,313.3v-1.4h2.3v-3l3.1-.4c0,.4,0,.7,0,.8v2.5h2.5v1.4h-2.5v11.2c0,.9.4,1.4,1.2,1.4s.4,0,.6,0c.2,0,.4-.2.8-.4v1.6c-.5.2-.9.4-1.3.5-.4,0-.8.1-1.3.1-1,0-1.8-.2-2.3-.7-.5-.5-.7-1.3-.7-2.3v-11.3h-2.3ZM400.1,307.7c.6,0,1.1.1,1.4.4.3.2.5.6.5,1s-.2.8-.5,1c-.3.3-.8.4-1.4.4s-1.1-.1-1.4-.4c-.3-.2-.5-.6-.5-1.1s.2-.8.5-1c.3-.3.8-.4,1.4-.4ZM401.7,311.9c0,.2,0,.4,0,.5,0,.1,0,.3,0,.5v13.6c0,.2,0,.3,0,.5,0,.1,0,.3,0,.5h-3.3c0-.2,0-.3,0-.5,0-.1,0-.3,0-.5v-13.6c0-.2,0-.4,0-.5,0-.1,0-.3,0-.5h3.3ZM394.7,306c0,.2,0,.3,0,.5,0,.1,0,.3,0,.5v19.4c0,.2,0,.3,0,.5,0,.1,0,.3,0,.5h-3.3c0-.3.1-.6.1-.9v-19.4c0-.2,0-.4,0-.5,0-.1,0-.3,0-.5h3.3ZM381.3,311.5c1.1,0,2.1.2,3,.6.9.4,1.6.9,2.3,1.6.6.7,1.1,1.5,1.4,2.5.3,1,.5,2.1.5,3.4s-.2,2.3-.5,3.3c-.3,1-.8,1.8-1.4,2.5-.6.7-1.4,1.2-2.2,1.6-.9.4-1.8.6-2.9.6s-2.1-.2-3-.6c-.9-.4-1.6-.9-2.3-1.6-.6-.7-1.1-1.6-1.4-2.6-.3-1-.5-2.2-.5-3.5s.2-2.3.5-3.2c.3-1,.8-1.8,1.4-2.5.6-.7,1.4-1.2,2.3-1.6.9-.4,1.9-.5,2.9-.5ZM381.3,312.8c-.6,0-1.1.2-1.6.5-.5.3-.9.8-1.2,1.4-.3.6-.6,1.3-.8,2.1-.2.8-.3,1.7-.3,2.8,0,2.1.4,3.8,1.1,5,.7,1.2,1.7,1.8,2.9,1.8s2.2-.6,2.9-1.8c.7-1.2,1.1-2.9,1.1-4.9s-.4-3.7-1.1-5c-.7-1.2-1.7-1.8-2.9-1.8ZM363.2,326.4c0,.2,0,.3,0,.4,0,.1,0,.3.1.5h-3.6c0-.4.1-.7.1-.9v-17.9c0-.3,0-.6-.1-1h6.3c2,0,3.6.5,4.7,1.4,1.1,1,1.7,2.3,1.7,4s-.6,3.2-1.9,4.3c-1.3,1-3,1.5-5.3,1.5h-2.1v7.6ZM365,317.3c.9,0,1.7-.2,2.3-.5.6-.3,1-.8,1.4-1.5.3-.7.5-1.4.5-2.2,0-1.3-.3-2.3-1-3-.7-.7-1.6-1.1-2.8-1.1h-2v8.3h1.8Z"/>-->
  <path class="cls-2" d="M304.8,305c-2.4-2.4-5.4-4.4-8.6-5.8-1.9-.8-4-1.4-6.1-1.7h0c0-.1-1.1-.1-1.1-.1-1-.1-1.9-.2-2.9-.2s-2,0-2.9.2h-.4,0c-2.4.4-4.6,1-6.8,1.9-3.2,1.3-6.2,3.3-8.6,5.8-2.4,2.4-4.4,5.4-5.8,8.6-1.3,3.1-2,6.5-2,10.1s.7,7,2,10.1c1.3,3.2,3.3,6.2,5.8,8.6,2.4,2.4,5.4,4.4,8.6,5.8,2.6,1.1,5.3,1.7,8.3,1.9v.6c-3-.2-5.8-.9-8.5-2-3.3-1.4-6.3-3.4-8.8-5.9-2.5-2.5-4.5-5.5-5.9-8.8-1.3-3.2-2.1-6.7-2.1-10.3s.7-7.1,2.1-10.3c1.4-3.3,3.4-6.3,5.9-8.8,2.5-2.5,5.5-4.5,8.8-5.9,3.2-1.3,6.7-2.1,10.3-2.1s7.1.7,10.3,2.1c3.3,1.4,6.3,3.4,8.8,5.9,2.5,2.5,4.5,5.5,5.9,8.8,1.3,3.2,2.1,6.7,2.1,10.3s-.7,7.1-2.1,10.3c-1.4,3.3-3.4,6.3-5.9,8.8-2.5,2.5-5.5,4.5-8.8,5.9-2.4,1-5,1.7-7.7,1.9v-.6c2.6-.3,5.1-.9,7.5-1.9,3.2-1.3,6.2-3.3,8.6-5.8,2.4-2.4,4.4-5.4,5.8-8.6,1.3-3.1,2-6.5,2-10.1s-.7-7-2-10.1c-1.3-3.2-3.3-6.2-5.8-8.6M276.7,291.5l-4.3,1.3,1,3.2v.2c0,0-.1.1-.1.1-.7.3-1.4.7-2,1.1-.7.4-1.3.8-1.9,1.2h-.2c0,.1-.2,0-.2,0l-1.9-2.5-4.3,3.3,2,2.7v.2c.1,0,0,.2,0,.2-.5.5-1,1.1-1.5,1.6-.5.6-1,1.1-1.4,1.7v.2c-.1,0-.4-.1-.4-.1l-3.1-1.7-2.5,4.8,2.8,1.5h.2c0,.1-.1.4-.1.4-.4.8-.7,1.5-1,2.3-.3.8-.6,1.6-.8,2.4v.2c0,0-.3,0-.3,0l-3.1-.4-.7,5.3,2.8.4h.3s0,.3,0,.3c0,.4,0,.8,0,1.2,0,.4,0,.8,0,1.1s0,.8,0,1.3c0,.4,0,.8,0,1.2v.3s-.3,0-.3,0l-3.1.2.3,5.4,3.9-.2h.2s0,.2,0,.2c.2.7.5,1.5.7,2.2.3.7.6,1.4.9,2.1v.2c.1,0-.1.1-.1.1l-2.7,1.4,2.6,4.7,2.9-1.5h.2c0-.1.1,0,.1,0,.5.6.9,1.3,1.5,1.9.5.6,1,1.2,1.6,1.7l.2.2-.2.2-2.4,2.4,3.8,3.8,2.8-2.8.2-.2h.2c.6.5,1.3.9,1.9,1.3.7.4,1.3.7,2,1h.2c0,.1,0,.3,0,.3l-1.2,3.3,5.1,1.8,1.1-3.3v-.2c0,0,.3,0,.3,0,1.2.3,2.4.5,3.6.7.6,0,1.3.1,2,.2v.6c-.7,0-1.4,0-2-.2-1.2-.1-2.3-.4-3.5-.6l-1.1,3.3v.3c0,0-.4,0-.4,0l-5.6-2h-.3c0,0,0-.4,0-.4l1.2-3.4c-.6-.3-1.2-.6-1.8-1-.6-.3-1.2-.7-1.8-1.1l-2.8,2.8-.2.2-.2-.2-4.2-4.2-.2-.2.2-.2,2.4-2.4c-.5-.5-1-1-1.4-1.6-.5-.5-.9-1.1-1.3-1.7l-2.9,1.6h-.2c0,.1-.1-.1-.1-.1l-2.8-5.2v-.2c-.1,0,.1-.1.1-.1l2.7-1.5c-.3-.6-.5-1.3-.8-1.9-.2-.7-.5-1.3-.7-2l-4,.2h-.3s0-.3,0-.3l-.3-5.9v-.3s.3,0,.3,0l3.1-.2c0-.3,0-.6,0-1,0-.4,0-.8,0-1.3s0-.8,0-1.2c0-.3,0-.6,0-.9l-2.8-.4h-.3s0-.3,0-.3l.7-5.9v-.3s.3,0,.3,0l3.1.4c.2-.8.5-1.5.7-2.2.3-.7.6-1.4.9-2.1l-2.9-1.5h-.2c0-.1.1-.4.1-.4l2.8-5.3v-.2c.1,0,.4.1.4.1l3.2,1.7c.4-.5.8-1.1,1.3-1.6.4-.5.9-1,1.4-1.5l-2-2.7-.2-.2.2-.2,4.7-3.6.2-.2.2.2,1.9,2.5c.6-.4,1.2-.7,1.8-1.1.6-.3,1.2-.7,1.8-1l-1-3.2v-.3c0,0,.2,0,.2,0l4.8-1.5v.6ZM295.9,289.9l5.2,2.7h.2c0,.1-.1.4-.1.4l-1.6,3.1c.7.3,1.4.7,2,1.1.7.4,1.3.8,2,1.3l2.6-2.8.2-.2.2.2,4.4,4,.2.2-.2.2-2.5,2.7c.5.5.9,1,1.3,1.5.4.5.8,1.1,1.2,1.6l3.6-1.8h.2c0-.1.1.1.1.1l2.6,5.3v.2c.1,0-.1.1-.1.1l-3.2,1.6c.3.6.5,1.2.7,1.8.2.6.4,1.3.6,1.9l4.5-.5h.3s0,.2,0,.2l.6,5.9v.3s-.2,0-.2,0l-4,.4c0,.3,0,.6,0,.9,0,.4,0,.8,0,1.2s0,.7,0,1.1c0,.3,0,.6,0,.9l4.3,1.2h.3c0,0,0,.3,0,.3l-1.6,5.7v.3c0,0-.3,0-.3,0l-3.7-1c-.2.7-.4,1.4-.7,2.1-.3.7-.5,1.4-.9,2.1l3.3,1.7h.2c0,.1-.1.4-.1.4l-2.7,5.3v.2c-.1,0-.4-.1-.4-.1l-3.7-1.9c-.4.5-.8,1-1.2,1.5-.4.5-.8,1-1.3,1.4l2.4,3,.2.2-.2.2-4.6,3.8-.2.2-.2-.2-2.4-2.9c-.6.4-1.1.7-1.7,1.1-.6.3-1.2.7-1.8,1l1.1,3.7v.3c0,0-.2,0-.2,0l-5.7,1.7h-.3c0,0,0-.2,0-.2l-.9-3.2c-1.2.3-2.4.6-3.7.7-.5,0-1,.1-1.5.2v-.6c.5,0,.9,0,1.4-.1,1.3-.2,2.6-.4,3.9-.8h.3c0,0,0,.2,0,.2l.9,3.2,5.2-1.5-1.1-3.7v-.2c0,0,.1-.1.1-.1.7-.3,1.3-.7,1.9-1.1.6-.4,1.3-.8,1.9-1.2h.2c0-.1.2,0,.2,0l2.3,2.9,4.2-3.4-2.4-3-.2-.2.2-.2c.5-.5,1-1,1.4-1.6.5-.5.9-1.1,1.3-1.7v-.2c.1,0,.3.1.3.1l3.7,1.8,2.4-4.8-3.3-1.7h-.2c0-.1.1-.4.1-.4.3-.7.7-1.5,1-2.3.3-.8.5-1.6.8-2.4v-.3c0,0,.3,0,.3,0l3.7,1,1.4-5.2-4.2-1.1h-.2c0,0,0-.3,0-.3,0-.4,0-.7,0-1.1,0-.4,0-.7,0-1.1s0-.8,0-1.1c0-.4,0-.8,0-1.1v-.3s.2,0,.2,0l4-.4-.6-5.4-4.5.5h-.2s0-.2,0-.2c-.2-.7-.4-1.4-.7-2.1-.3-.7-.5-1.4-.8-2.1v-.2c-.1,0,.1-.1.1-.1l3.2-1.6-2.4-4.8-3.5,1.7h-.2c0,.1-.1,0-.1,0-.4-.6-.9-1.2-1.3-1.8-.5-.6-1-1.1-1.5-1.7l-.2-.2.2-.2,2.5-2.7-4-3.6-2.6,2.8-.2.2h-.2c-.7-.6-1.4-1.1-2.1-1.5-.7-.4-1.5-.8-2.2-1.2h-.3c0-.1.1-.4.1-.4l1.6-3.1-4.7-2.5v-.6Z"/>
  <path class="cls-2" d="M289,340.6c.1,0,.2,0,.3,0-.1,0-.2,0-.3,0M283.3,340.6c0,0,.2,0,.3,0,0,0-.2,0-.3,0ZM283,340.5c0,0,.1,0,.2,0,0,0-.1,0-.2,0ZM290.4,341.9l-.6,22.4v.2s0,.2,0,.2c-.3.7-.6,1.2-.9,1.7-1,2-1.6,3.1-2.5,3.1-1,0-1.7-1.4-3-4.5,0-.1-.1-.2-.2-.4h0c0-.1,0-.3,0-.3l-.6-22.4h0s0,0,.1,0c.3,0,.8,0,1.3.2l.6,22.1c0,0,0,.2.1.2,1.1,2.5,1.6,3.6,1.7,3.6,0,0,.4-.8,1.2-2.3.2-.5.5-1,.8-1.6l.5-22c.5-.2.9-.1,1.2-.1,0,0,0,0,.1,0h.2ZM282,295.9h9.6v.8s-.3,9.5-.3,9.5h-1.5l.2-8.8h-7.3l.2,8.8h-1.5l-.3-9.5v-.8s.7,0,.7,0Z"/>
  <path class="cls-2" d="M302.1,307.5h-31.1v29.5c0,1,.4,1.8,1,2.5.6.6,1.5,1,2.5,1h8.1s0,0,0,0c.8,0,2.7,0,3.8,1.8,1.3-1.8,2.8-1.8,3.7-1.8,0,0,0,0,.1,0h8.4c.9,0,1.8-.4,2.4-1,.6-.6,1-1.5,1-2.4v-29.6ZM270.3,306.2h33.2v31c0,1.3-.5,2.5-1.4,3.4-.9.9-2,1.4-3.4,1.4h-8.4s0,0-.1,0c-.8,0-2.1,0-3.2,2.3l-.8,1.8-.5-1.9c-.6-2.2-2.4-2.2-3-2.2,0,0,0,0-.1,0h-8.1c-1.3,0-2.6-.5-3.4-1.4-.9-.9-1.4-2.1-1.4-3.4v-30.9h.7Z"/>
  <path class="cls-2" d="M276.7,295.9h19.2v-6.2h-19.2v6.2ZM296.6,297.4h-21.4v-9.1h22.1v9.1h-.7Z"/>
  <path class="cls-1" d="M255.2,309.6h-9.2v1c2.1.2,2.7,1,2.7,3.4v17c0,2.6-.6,3.5-2.8,3.6v1h10.5v-1c-2.4-.1-2.8-1-2.8-3.6v-7.1h2.8c5.1,0,7.8-2.9,7.8-7.2s-1.2-5-3.3-6.1c-1.6-.9-3.5-.9-5.8-.9M253.7,322.5v-9.6c0-1.4.3-1.9,1.6-1.9,2.6,0,3.5,1.8,3.5,5.8s-1.2,5.7-4.2,5.7h-.9Z"/>
  <path class="cls-1" d="M309.9,335.5h17.3l1.1-8.8h-.8c-1.6,5.6-3.7,7.2-7.8,7.2s-2.3-.6-2.3-3.1v-9.1l5-4.4v-2.1l-5,4.4v-5.6c0-2.7.5-3.4,3.1-3.4v-1h-10.4v1c2,.1,2.6,1,2.6,3.4v8.7l-3.3,2.9v2.1l3.3-2.9v6.1c0,2.6-.5,3.5-2.6,3.6v1Z"/>
  <path class="cls-1" d="M311.5,272.6l1.6-3.5c-5.1,3-13.8,1.2-23,.1-10.7-1.3-21.2,3-11.2,17.7h5.2c-3.9-7.2-3.3-10.8-.1-12.7,3.2-1.9,9-1.7,15.2-1.5,4.3.1,8.7.3,12.4-.2M310.3,275.3l.8-1.7c-3.7.4-7.9.3-12,.2-6-.2-11.7-.4-14.7,1.4-2.7,1.6-3.1,5,.7,11.9h3.3c-1.8-6.4.1-9.3,3.8-10.5,2.9-1,6.8-.9,10.5-.9,2.8,0,5.5.1,7.6-.3ZM309.1,277.9l.7-1.5c-2.1.3-4.6.2-7.1.2-3.7,0-7.5-.1-10.2.8-3.2,1.1-4.9,3.7-3.1,9.6h1.9c-.3-6.5,3.1-8.3,7.4-8.7,1.6-.2,3.2-.1,4.8-.1,2,0,4,0,5.6-.3ZM294,287c2.8-8.2,9.2-3.8,13.8-6.2l.9-1.9c-1.6.2-3.3.2-5.2.2-1.6,0-3.3,0-4.7.1-3.8.4-6.8,2-6.5,7.8h1.8Z"/>
  <path class="cls-1" d="M273.6,319.8h1.9l.8,1.2h2.1l2.2,3.4h11.2l2.1-3.4h2.3l.9-2.3h1.5c-.9,5.9-2.6,9.7-5.1,11.3h-13.3c-3.1-1.4-5.1-5.1-6.7-10.2"/>
  <path class="cls-1" d="M280.9,331.1l.4-.7,2.6-5.3,5.1-10.6-.5-.2.4-.7,1.8.8-.3.7-.4-.2-5,10.2-2.6,5.3-.5,1.1c.4.5.5,1,.3,1.5l-2.2,4.7-2.6-1.2,2.1-4.6c.2-.5.9-.6,1.5-.7"/>
  <path class="cls-1" d="M237.7,218.7h98.8v158h-98.8v-158ZM234.8,215.4h104.6v164.4h-104.6v-164.4Z"/>
</svg>